<svg xmlns="http://www.w3.org/2000/svg" viewBox="0 0 512 512" width="512" height="512">
  <!-- Black rounded background -->
  <path d="M0 106.667C0 47.7563 47.7563 0 106.667 0H405.333C464.244 0 512 47.7563 512 106.667V405.333C512 464.244 464.244 512 405.333 512H106.667C47.7563 512 0 464.244 0 405.333V106.667Z" fill="#000000"/>

  <!-- White EVA letters -->
  <path d="M426.01 323.494H474.487L377.533 156.089L280.579 323.494H329.056L329.065 323.478H329.081L353.32 281.627H353.303L377.533 239.791L377.541 239.806L377.545 239.799L377.555 239.829L426.01 323.494Z" fill="#ffffff"/>
  <path d="M207.863 156.104L50.3135 156.104L50.3135 197.161L182.972 197.161L256.34 323.509L353.294 156.104H304.817L256.34 239.806L207.863 156.104Z" fill="#ffffff"/>
  <path d="M231.962 323.509L50.3135 323.509L50.3135 282.452L208.25 282.452L231.962 323.509Z" fill="#ffffff"/>
  <path d="M172.01 219.675L195.265 259.937L50.3135 259.937L50.3135 219.675L172.01 219.675Z" fill="#ffffff"/>

  <!-- Deep purple + overlay -->
  <g fill="#6B21A8" stroke-linejoin="round">
    <rect x="420" y="280" width="20" height="100" rx="12"/>
    <rect x="380" y="320" width="100" height="20" rx="12"/>
  </g>
</svg>